<svg width="48" height="48" viewBox="0 0 48 48" fill="none" xmlns="http://www.w3.org/2000/svg">
<path d="M28.86 10.36C29.24 10.36 29.62 10.5 29.92 10.8L42.06 22.94C42.64 23.52 42.64 24.48 42.06 25.06L29.92 37.2C29.34 37.78 28.38 37.78 27.8 37.2C27.22 36.62 27.22 35.66 27.8 35.08L38.88 24L27.8 12.92C27.22 12.34 27.22 11.38 27.8 10.8C28.08 10.5 28.48 10.36 28.86 10.36Z" fill="#2E3136"/>
<path d="M7 22.5L40.66 22.5C41.48 22.5 42.16 23.18 42.16 24C42.16 24.82 41.48 25.5 40.66 25.5L7 25.5C6.18 25.5 5.5 24.82 5.5 24C5.5 23.18 6.18 22.5 7 22.5Z" fill="#2E3136"/>
</svg>
