<?xml version="1.0" standalone="no"?>
<!DOCTYPE svg PUBLIC "-//W3C//DTD SVG 20010904//EN"
 "http://www.w3.org/TR/2001/REC-SVG-20010904/DTD/svg10.dtd">
<svg version="1.0" xmlns="http://www.w3.org/2000/svg"
 width="342.000000pt" height="342.000000pt" viewBox="0 0 342.000000 342.000000"
 preserveAspectRatio="xMidYMid meet">
<metadata>
Created by potrace 1.14, written by Peter Selinger 2001-2017
</metadata>
<g transform="translate(0.000000,342.000000) scale(0.100000,-0.100000)"
fill="#000000" stroke="none">
<path d="M1716 3103 c-2 -2 -30 -6 -62 -8 -80 -6 -104 -11 -209 -46 -111 -37
-217 -93 -319 -169 -71 -53 -192 -189 -254 -285 -52 -82 -121 -259 -136 -350
-71 -416 77 -796 408 -1053 89 -69 303 -172 357 -172 23 0 5 19 -33 36 -44 20
-168 97 -208 130 -70 58 -154 152 -207 230 -33 49 -103 178 -110 204 -5 15
-16 48 -23 65 -5 11 -13 43 -19 70 -6 28 -14 64 -17 80 -11 52 -13 268 -3 325
6 30 12 69 15 85 9 49 54 176 86 238 26 53 99 165 130 202 90 106 215 206 333
266 74 38 208 90 223 87 4 -1 27 4 52 12 27 8 100 13 181 14 76 1 135 4 133 8
-4 6 -17 8 -119 24 -46 7 -193 12 -199 7z"/>
<path d="M1753 2879 c-259 -57 -471 -244 -563 -496 -37 -104 -45 -149 -45
-264 0 -78 3 -89 29 -127 34 -49 89 -78 166 -86 30 -4 66 -8 80 -10 14 -2 52
-8 85 -11 33 -4 71 -9 85 -11 14 -1 48 -5 76 -9 29 -3 60 -7 70 -9 11 -2 46
-7 79 -11 57 -6 87 -10 165 -19 171 -22 179 -23 260 -31 93 -11 101 -12 122
-31 22 -21 21 -25 -47 -170 -74 -155 -69 -132 -81 -376 -5 -110 -4 -120 16
-148 72 -101 214 -68 235 55 2 11 6 65 9 120 8 138 9 140 48 225 20 41 55 116
78 165 71 151 80 175 80 215 0 84 -50 142 -138 161 -31 7 -60 12 -63 11 -3 0
-37 3 -75 9 -38 5 -89 12 -114 14 -25 3 -54 6 -65 9 -17 3 -47 6 -185 21 -51
6 -177 21 -230 29 -19 3 -57 8 -85 11 -27 3 -61 7 -75 10 -14 2 -50 7 -80 10
-30 3 -64 7 -75 10 -11 2 -29 4 -41 4 -11 1 -31 11 -43 22 -31 29 -23 78 26
179 84 174 264 288 455 288 84 0 137 -12 208 -45 30 -14 58 -26 62 -25 4 1 43
-33 86 -76 67 -65 87 -92 126 -174 36 -76 54 -102 78 -114 86 -45 188 11 190
104 0 33 -33 129 -65 185 -92 163 -246 294 -419 356 -47 17 -67 23 -128 38
-54 13 -222 9 -297 -8z"/>
<path d="M2025 988 c-44 -17 -116 -43 -160 -60 -44 -16 -90 -32 -102 -35 -38
-9 -73 -49 -73 -83 0 -41 43 -82 79 -77 24 4 170 56 318 113 34 13 65 24 70
24 17 0 44 59 37 84 -15 63 -63 73 -169 34z"/>
<path d="M2263 851 c-40 -16 -73 -27 -73 -24 0 2 -7 -3 -16 -11 -8 -9 -22 -16
-31 -16 -8 0 -47 -14 -86 -31 -40 -16 -81 -34 -92 -38 -213 -89 -213 -89 -227
-114 -34 -63 21 -137 88 -118 29 8 264 101 319 126 17 8 75 32 130 55 117 47
118 48 134 78 19 35 4 80 -32 103 -18 10 -34 19 -37 19 -3 -1 -38 -14 -77 -29z"/>
<path d="M2260 603 c-8 -2 -24 -8 -35 -13 -11 -5 -78 -30 -150 -55 -167 -59
-175 -64 -192 -103 -12 -28 -11 -37 2 -65 9 -20 28 -37 46 -44 29 -11 38 -11
77 4 9 3 19 7 22 8 3 1 18 7 33 13 16 7 31 12 34 12 11 0 199 71 230 86 93 47
32 190 -67 157z"/>
</g>
</svg>
